<svg id="visual" viewBox="0 0 1920 1080" width="1920" height="1080" xmlns="http://www.w3.org/2000/svg" xmlns:xlink="http://www.w3.org/1999/xlink" version="1.1"><rect x="0" y="0" width="1920" height="1080" fill="#E4E9F7"></rect><defs><linearGradient id="grad1_0" x1="43.8%" y1="0%" x2="100%" y2="100%"><stop offset="14.444444444444446%" stop-color="#0062d2" stop-opacity="1"></stop><stop offset="85.55555555555554%" stop-color="#0062d2" stop-opacity="1"></stop></linearGradient></defs><defs><linearGradient id="grad1_1" x1="43.8%" y1="0%" x2="100%" y2="100%"><stop offset="14.444444444444446%" stop-color="#0062d2" stop-opacity="1"></stop><stop offset="85.55555555555554%" stop-color="#4274d8" stop-opacity="1"></stop></linearGradient></defs><defs><linearGradient id="grad1_2" x1="43.8%" y1="0%" x2="100%" y2="100%"><stop offset="14.444444444444446%" stop-color="#6387de" stop-opacity="1"></stop><stop offset="85.55555555555554%" stop-color="#4274d8" stop-opacity="1"></stop></linearGradient></defs><defs><linearGradient id="grad1_3" x1="43.8%" y1="0%" x2="100%" y2="100%"><stop offset="14.444444444444446%" stop-color="#6387de" stop-opacity="1"></stop><stop offset="85.55555555555554%" stop-color="#7e9ae4" stop-opacity="1"></stop></linearGradient></defs><defs><linearGradient id="grad1_4" x1="43.8%" y1="0%" x2="100%" y2="100%"><stop offset="14.444444444444446%" stop-color="#98aee9" stop-opacity="1"></stop><stop offset="85.55555555555554%" stop-color="#7e9ae4" stop-opacity="1"></stop></linearGradient></defs><defs><linearGradient id="grad1_5" x1="43.8%" y1="0%" x2="100%" y2="100%"><stop offset="14.444444444444446%" stop-color="#98aee9" stop-opacity="1"></stop><stop offset="85.55555555555554%" stop-color="#b1c1ee" stop-opacity="1"></stop></linearGradient></defs><defs><linearGradient id="grad1_6" x1="43.8%" y1="0%" x2="100%" y2="100%"><stop offset="14.444444444444446%" stop-color="#cbd5f3" stop-opacity="1"></stop><stop offset="85.55555555555554%" stop-color="#b1c1ee" stop-opacity="1"></stop></linearGradient></defs><defs><linearGradient id="grad1_7" x1="43.8%" y1="0%" x2="100%" y2="100%"><stop offset="14.444444444444446%" stop-color="#cbd5f3" stop-opacity="1"></stop><stop offset="85.55555555555554%" stop-color="#e4e9f7" stop-opacity="1"></stop></linearGradient></defs><defs><linearGradient id="grad2_0" x1="0%" y1="0%" x2="56.3%" y2="100%"><stop offset="14.444444444444446%" stop-color="#0062d2" stop-opacity="1"></stop><stop offset="85.55555555555554%" stop-color="#0062d2" stop-opacity="1"></stop></linearGradient></defs><defs><linearGradient id="grad2_1" x1="0%" y1="0%" x2="56.3%" y2="100%"><stop offset="14.444444444444446%" stop-color="#4274d8" stop-opacity="1"></stop><stop offset="85.55555555555554%" stop-color="#0062d2" stop-opacity="1"></stop></linearGradient></defs><defs><linearGradient id="grad2_2" x1="0%" y1="0%" x2="56.3%" y2="100%"><stop offset="14.444444444444446%" stop-color="#4274d8" stop-opacity="1"></stop><stop offset="85.55555555555554%" stop-color="#6387de" stop-opacity="1"></stop></linearGradient></defs><defs><linearGradient id="grad2_3" x1="0%" y1="0%" x2="56.3%" y2="100%"><stop offset="14.444444444444446%" stop-color="#7e9ae4" stop-opacity="1"></stop><stop offset="85.55555555555554%" stop-color="#6387de" stop-opacity="1"></stop></linearGradient></defs><defs><linearGradient id="grad2_4" x1="0%" y1="0%" x2="56.3%" y2="100%"><stop offset="14.444444444444446%" stop-color="#7e9ae4" stop-opacity="1"></stop><stop offset="85.55555555555554%" stop-color="#98aee9" stop-opacity="1"></stop></linearGradient></defs><defs><linearGradient id="grad2_5" x1="0%" y1="0%" x2="56.3%" y2="100%"><stop offset="14.444444444444446%" stop-color="#b1c1ee" stop-opacity="1"></stop><stop offset="85.55555555555554%" stop-color="#98aee9" stop-opacity="1"></stop></linearGradient></defs><defs><linearGradient id="grad2_6" x1="0%" y1="0%" x2="56.3%" y2="100%"><stop offset="14.444444444444446%" stop-color="#b1c1ee" stop-opacity="1"></stop><stop offset="85.55555555555554%" stop-color="#cbd5f3" stop-opacity="1"></stop></linearGradient></defs><defs><linearGradient id="grad2_7" x1="0%" y1="0%" x2="56.3%" y2="100%"><stop offset="14.444444444444446%" stop-color="#e4e9f7" stop-opacity="1"></stop><stop offset="85.55555555555554%" stop-color="#cbd5f3" stop-opacity="1"></stop></linearGradient></defs><g transform="translate(1920, 0)"><path d="M0 972C-173.1 948.3 -346.1 924.7 -486 841.8C-625.9 758.9 -732.5 616.7 -808 466.5C-883.5 316.3 -927.7 158.2 -972 0L0 0Z" fill="#d7dff5"></path><path d="M0 850.5C-151.4 829.8 -302.9 809.1 -425.2 736.6C-547.6 664 -641 539.6 -707 408.2C-773 276.8 -811.8 138.4 -850.5 0L0 0Z" fill="#becbf1"></path><path d="M0 729C-129.8 711.3 -259.6 693.5 -364.5 631.3C-469.4 569.1 -549.4 462.5 -606 349.9C-662.6 237.2 -695.8 118.6 -729 0L0 0Z" fill="#a5b7ec"></path><path d="M0 607.5C-108.2 592.7 -216.3 577.9 -303.7 526.1C-391.2 474.3 -457.8 385.4 -505 291.6C-552.2 197.7 -579.8 98.9 -607.5 0L0 0Z" fill="#8ba4e7"></path><path d="M0 486C-86.5 474.2 -173.1 462.3 -243 420.9C-312.9 379.4 -366.3 308.3 -404 233.3C-441.7 158.2 -463.9 79.1 -486 0L0 0Z" fill="#7191e1"></path><path d="M0 364.5C-64.9 355.6 -129.8 346.8 -182.2 315.7C-234.7 284.6 -274.7 231.3 -303 174.9C-331.3 118.6 -347.9 59.3 -364.5 0L0 0Z" fill="#537edc"></path><path d="M0 243C-43.3 237.1 -86.5 231.2 -121.5 210.4C-156.5 189.7 -183.1 154.2 -202 116.6C-220.9 79.1 -231.9 39.5 -243 0L0 0Z" fill="#2d6bd5"></path><path d="M0 121.5C-21.6 118.5 -43.3 115.6 -60.7 105.2C-78.2 94.9 -91.6 77.1 -101 58.3C-110.4 39.5 -116 19.8 -121.5 0L0 0Z" fill="#0062d2"></path></g><g transform="translate(0, 1080)"><path d="M0 -972C159.2 -929.6 318.5 -887.2 468.5 -811.5C618.5 -735.8 759.4 -626.8 841.8 -486C924.2 -345.2 948.1 -172.6 972 0L0 0Z" fill="#d7dff5"></path><path d="M0 -850.5C139.3 -813.4 278.7 -776.3 409.9 -710C541.2 -643.8 664.5 -548.4 736.6 -425.3C808.6 -302.1 829.6 -151 850.5 0L0 0Z" fill="#becbf1"></path><path d="M0 -729C119.4 -697.2 238.8 -665.4 351.4 -608.6C463.9 -551.8 569.5 -470.1 631.3 -364.5C693.1 -258.9 711.1 -129.5 729 0L0 0Z" fill="#a5b7ec"></path><path d="M0 -607.5C99.5 -581 199 -554.5 292.8 -507.2C386.6 -459.9 474.6 -391.7 526.1 -303.8C577.6 -215.8 592.6 -107.9 607.5 0L0 0Z" fill="#8ba4e7"></path><path d="M0 -486C79.6 -464.8 159.2 -443.6 234.2 -405.7C309.3 -367.9 379.7 -313.4 420.9 -243C462.1 -172.6 474 -86.3 486 0L0 0Z" fill="#7191e1"></path><path d="M0 -364.5C59.7 -348.6 119.4 -332.7 175.7 -304.3C232 -275.9 284.8 -235 315.7 -182.3C346.6 -129.5 355.5 -64.7 364.5 0L0 0Z" fill="#537edc"></path><path d="M0 -243C39.8 -232.4 79.6 -221.8 117.1 -202.9C154.6 -183.9 189.8 -156.7 210.4 -121.5C231 -86.3 237 -43.2 243 0L0 0Z" fill="#2d6bd5"></path><path d="M0 -121.5C19.9 -116.2 39.8 -110.9 58.6 -101.4C77.3 -92 94.9 -78.3 105.2 -60.8C115.5 -43.2 118.5 -21.6 121.5 0L0 0Z" fill="#0062d2"></path></g></svg>